#Comment line ignore any data following # character 
#Hierarchical Translation and Rotation (.htr) file 
[Header]	
#Header keywords are followed by a single value 
FileType HTR		#Single word string
DataType HTRS		#Translation followed by rotation and scale data
FileVersion 1		#integer
NumSegments 84		#integer
NumFrames 2		#integer
DataFrameRate 30		#integer, data frame rate in this file
EulerRotationOrder ZYX
CalibrationUnits mm
RotationUnits Degrees
GlobalAxisofGravity Y
BoneLengthAxis Y
ScaleFactor 1.00
[SegmentNames&Hierarchy]
#CHILD	PARENT
MASTER GLOBAL
root MASTER
chest root
L_mid_tent01 root
R_mid_tent01 root
spine01 root
Bip01_Neck chest
L_humerus chest
R_humerus chest
weapon_bone chest
Bip01_Head Bip01_Neck
eye_left_bone Bip01_Head
eye_right_bone Bip01_Head
L_forearm L_humerus
L_front_hand L_forearm
L_weapon_bone L_forearm
L_front_hand01_01 L_front_hand
L_front_hand02_01 L_front_hand
L_front_hand03_01 L_front_hand
L_front_hand01_02 L_front_hand01_01
L_front_hand02_02 L_front_hand02_01
L_front_hand03_02 L_front_hand03_01
R_forearm R_humerus
R_front_hand R_forearm
R_weapon_bone R_forearm
R_front_hand01_01 R_front_hand
R_front_hand02_01 R_front_hand
R_front_hand03_01 R_front_hand
R_front_hand01_02 R_front_hand01_01
R_front_hand02_02 R_front_hand02_01
R_front_hand03_02 R_front_hand03_01
null_rope01_connect L_mid_tent01
Rope1_Seg01 null_rope01_connect
Rope1_Seg02 Rope1_Seg01
Rope1_Seg03 Rope1_Seg02
Rope1_Seg04 Rope1_Seg03
Rope1_Seg05 Rope1_Seg04
Rope1_Seg06 Rope1_Seg05
Rope1_Seg07 Rope1_Seg06
Rope1_Seg09 Rope1_Seg07
L_mid_hand01 Rope1_Seg09
L_mid_hand02 Rope1_Seg09
L_mid_hand03 Rope1_Seg09
null_rope02_connect R_mid_tent01
Rope2_Seg01 null_rope02_connect
Rope2_Seg02 Rope2_Seg01
Rope2_Seg03 Rope2_Seg02
Rope2_Seg04 Rope2_Seg03
Rope2_Seg05 Rope2_Seg04
Rope2_Seg06 Rope2_Seg05
Rope2_Seg07 Rope2_Seg06
Rope2_Seg09 Rope2_Seg07
R_mid_hand01 Rope2_Seg09
R_mid_hand02 Rope2_Seg09
R_mid_hand03 Rope2_Seg09
spine02 spine01
spine03 spine02
pelvis spine03
null_rope03_connect pelvis
null_rope04_connect pelvis
Rope3_Seg01 null_rope03_connect
Rope3_Seg02 Rope3_Seg01
Rope3_Seg03 Rope3_Seg02
Rope3_Seg04 Rope3_Seg03
Rope3_Seg05 Rope3_Seg04
Rope3_Seg06 Rope3_Seg05
Rope3_Seg07 Rope3_Seg06
Rope3_Seg08 Rope3_Seg07
Rope3_Seg09 Rope3_Seg08
R_rear_hand01 Rope3_Seg09
R_rear_hand02 Rope3_Seg09
R_rear_hand03 Rope3_Seg09
Rope4_Seg01 null_rope04_connect
Rope4_Seg02 Rope4_Seg01
Rope4_Seg03 Rope4_Seg02
Rope4_Seg04 Rope4_Seg03
Rope4_Seg05 Rope4_Seg04
Rope4_Seg06 Rope4_Seg05
Rope4_Seg07 Rope4_Seg06
Rope4_Seg08 Rope4_Seg07
Rope4_Seg09 Rope4_Seg08
L_rear_hand01 Rope4_Seg09
L_rear_hand02 Rope4_Seg09
L_rear_hand03 Rope4_Seg09
[BasePosition]
#SegmentName Tx, Ty, Tz, Rx, Ry, Rz, BoneLength
MASTER 0.000000 0.000000 0.000000 -90.000000 0.000000 0.000000 10.000000 
root 0.000000 0.000000 0.000000 0.000000 0.000000 0.000000 10.000000 
chest 0.000000 0.000000 0.000000 0.000000 0.000000 0.000000 10.000000 
L_mid_tent01 0.000000 0.000000 0.000000 0.000000 0.000000 0.000000 10.000000 
R_mid_tent01 0.000000 0.000000 0.000000 0.000000 0.000000 0.000000 10.000000 
spine01 0.000000 0.000000 0.000000 0.000000 0.000000 0.000000 10.000000 
Bip01_Neck 0.000000 0.000000 0.000000 0.000000 0.000000 0.000000 10.000000 
L_humerus 0.000000 0.000000 0.000000 0.000000 0.000000 0.000000 10.000000 
R_humerus 0.000000 0.000000 0.000000 0.000000 0.000000 0.000000 10.000000 
weapon_bone 0.000000 0.000000 0.000000 0.000000 0.000000 0.000000 10.000000 
Bip01_Head 0.000000 0.000000 0.000000 0.000000 0.000000 0.000000 10.000000 
eye_left_bone 0.000000 0.000000 0.000000 0.000000 0.000000 0.000000 10.000000 
eye_right_bone 0.000000 0.000000 0.000000 0.000000 0.000000 0.000000 10.000000 
L_forearm 0.000000 0.000000 0.000000 0.000000 0.000000 0.000000 10.000000 
L_front_hand 0.000000 0.000000 0.000000 0.000000 0.000000 0.000000 10.000000 
L_weapon_bone 0.000000 0.000000 0.000000 0.000000 0.000000 0.000000 10.000000 
L_front_hand01_01 0.000000 0.000000 0.000000 0.000000 0.000000 0.000000 10.000000 
L_front_hand02_01 0.000000 0.000000 0.000000 0.000000 0.000000 0.000000 10.000000 
L_front_hand03_01 0.000000 0.000000 0.000000 0.000000 0.000000 0.000000 10.000000 
L_front_hand01_02 0.000000 0.000000 0.000000 0.000000 0.000000 0.000000 10.000000 
L_front_hand02_02 0.000000 0.000000 0.000000 0.000000 0.000000 0.000000 10.000000 
L_front_hand03_02 0.000000 0.000000 0.000000 0.000000 0.000000 0.000000 10.000000 
R_forearm 0.000000 0.000000 0.000000 0.000000 0.000000 0.000000 10.000000 
R_front_hand 0.000000 0.000000 0.000000 0.000000 0.000000 0.000000 10.000000 
R_weapon_bone 0.000000 0.000000 0.000000 0.000000 0.000000 0.000000 10.000000 
R_front_hand01_01 0.000000 0.000000 0.000000 0.000000 0.000000 0.000000 10.000000 
R_front_hand02_01 0.000000 0.000000 0.000000 0.000000 0.000000 0.000000 10.000000 
R_front_hand03_01 0.000000 0.000000 0.000000 0.000000 0.000000 0.000000 10.000000 
R_front_hand01_02 0.000000 0.000000 0.000000 0.000000 0.000000 0.000000 10.000000 
R_front_hand02_02 0.000000 0.000000 0.000000 0.000000 0.000000 0.000000 10.000000 
R_front_hand03_02 0.000000 0.000000 0.000000 0.000000 0.000000 0.000000 10.000000 
null_rope01_connect 0.000000 0.000000 0.000000 0.000000 0.000000 0.000000 10.000000 
Rope1_Seg01 0.000000 0.000000 0.000000 0.000000 0.000000 0.000000 10.000000 
Rope1_Seg02 0.000000 0.000000 0.000000 0.000000 0.000000 0.000000 10.000000 
Rope1_Seg03 0.000000 0.000000 0.000000 0.000000 0.000000 0.000000 10.000000 
Rope1_Seg04 0.000000 0.000000 0.000000 0.000000 0.000000 0.000000 10.000000 
Rope1_Seg05 0.000000 0.000000 0.000000 0.000000 0.000000 0.000000 10.000000 
Rope1_Seg06 0.000000 0.000000 0.000000 0.000000 0.000000 0.000000 10.000000 
Rope1_Seg07 0.000000 0.000000 0.000000 0.000000 0.000000 0.000000 10.000000 
Rope1_Seg09 0.000000 0.000000 0.000000 0.000000 0.000000 0.000000 10.000000 
L_mid_hand01 0.000000 0.000000 0.000000 0.000000 0.000000 0.000000 10.000000 
L_mid_hand02 0.000000 0.000000 0.000000 0.000000 0.000000 0.000000 10.000000 
L_mid_hand03 0.000000 0.000000 0.000000 0.000000 0.000000 0.000000 10.000000 
null_rope02_connect 0.000000 0.000000 0.000000 0.000000 0.000000 0.000000 10.000000 
Rope2_Seg01 0.000000 0.000000 0.000000 0.000000 0.000000 0.000000 10.000000 
Rope2_Seg02 0.000000 0.000000 0.000000 0.000000 0.000000 0.000000 10.000000 
Rope2_Seg03 0.000000 0.000000 0.000000 0.000000 0.000000 0.000000 10.000000 
Rope2_Seg04 0.000000 0.000000 0.000000 0.000000 0.000000 0.000000 10.000000 
Rope2_Seg05 0.000000 0.000000 0.000000 0.000000 0.000000 0.000000 10.000000 
Rope2_Seg06 0.000000 0.000000 0.000000 0.000000 0.000000 0.000000 10.000000 
Rope2_Seg07 0.000000 0.000000 0.000000 0.000000 0.000000 0.000000 10.000000 
Rope2_Seg09 0.000000 0.000000 0.000000 0.000000 0.000000 0.000000 10.000000 
R_mid_hand01 0.000000 0.000000 0.000000 0.000000 0.000000 0.000000 10.000000 
R_mid_hand02 0.000000 0.000000 0.000000 0.000000 0.000000 0.000000 10.000000 
R_mid_hand03 0.000000 0.000000 0.000000 0.000000 0.000000 0.000000 10.000000 
spine02 0.000000 0.000000 0.000000 0.000000 0.000000 0.000000 10.000000 
spine03 0.000000 0.000000 0.000000 0.000000 0.000000 0.000000 10.000000 
pelvis 0.000000 0.000000 0.000000 0.000000 0.000000 0.000000 10.000000 
null_rope03_connect 0.000000 0.000000 0.000000 0.000000 0.000000 0.000000 10.000000 
null_rope04_connect 0.000000 0.000000 0.000000 0.000000 0.000000 0.000000 10.000000 
Rope3_Seg01 0.000000 0.000000 0.000000 0.000000 0.000000 0.000000 10.000000 
Rope3_Seg02 0.000000 0.000000 0.000000 0.000000 0.000000 0.000000 10.000000 
Rope3_Seg03 0.000000 0.000000 0.000000 0.000000 0.000000 0.000000 10.000000 
Rope3_Seg04 0.000000 0.000000 0.000000 0.000000 0.000000 0.000000 10.000000 
Rope3_Seg05 0.000000 0.000000 0.000000 0.000000 0.000000 0.000000 10.000000 
Rope3_Seg06 0.000000 0.000000 0.000000 0.000000 0.000000 0.000000 10.000000 
Rope3_Seg07 0.000000 0.000000 0.000000 0.000000 0.000000 0.000000 10.000000 
Rope3_Seg08 0.000000 0.000000 0.000000 0.000000 0.000000 0.000000 10.000000 
Rope3_Seg09 0.000000 0.000000 0.000000 0.000000 0.000000 0.000000 10.000000 
R_rear_hand01 0.000000 0.000000 0.000000 0.000000 0.000000 0.000000 10.000000 
R_rear_hand02 0.000000 0.000000 0.000000 0.000000 0.000000 0.000000 10.000000 
R_rear_hand03 0.000000 0.000000 0.000000 0.000000 0.000000 0.000000 10.000000 
Rope4_Seg01 0.000000 0.000000 0.000000 0.000000 0.000000 0.000000 10.000000 
Rope4_Seg02 0.000000 0.000000 0.000000 0.000000 0.000000 0.000000 10.000000 
Rope4_Seg03 0.000000 0.000000 0.000000 0.000000 0.000000 0.000000 10.000000 
Rope4_Seg04 0.000000 0.000000 0.000000 0.000000 0.000000 0.000000 10.000000 
Rope4_Seg05 0.000000 0.000000 0.000000 0.000000 0.000000 0.000000 10.000000 
Rope4_Seg06 0.000000 0.000000 0.000000 0.000000 0.000000 0.000000 10.000000 
Rope4_Seg07 0.000000 0.000000 0.000000 0.000000 0.000000 0.000000 10.000000 
Rope4_Seg08 0.000000 0.000000 0.000000 0.000000 0.000000 0.000000 10.000000 
Rope4_Seg09 0.000000 0.000000 0.000000 0.000000 0.000000 0.000000 10.000000 
L_rear_hand01 0.000000 0.000000 0.000000 0.000000 0.000000 0.000000 10.000000 
L_rear_hand02 0.000000 0.000000 0.000000 0.000000 0.000000 0.000000 10.000000 
L_rear_hand03 0.000000 0.000000 0.000000 0.000000 0.000000 0.000000 10.000000 
#Beginning of Data. Separated by tabs
#Fr	Tx	Ty	Tz	Rx	Ry	Rz	SF
[MASTER]
20 0.000000 0.000000 0.000000 0.001660 0.001660 0.001660 0.000000
21 0.000000 0.000000 0.000000 0.001660 0.001660 0.001660 0.000000
[root]
20 -56.662491 -4.013600 1239.392578 -87.543137 -28.818573 -87.336357 1240.693726
21 -57.819355 -2.319541 1214.743164 -87.429123 -29.228495 -87.254181 1216.120605
[chest]
20 -84.512650 -34.090519 0.000000 0.320940 -0.527952 -152.590240 91.129311
21 -84.512650 -34.090519 0.000000 0.510330 -0.648603 -150.315170 91.129311
[L_mid_tent01]
20 27.299500 22.177483 -249.917984 1.045126 30.174280 77.454483 252.380859
21 27.299500 22.177483 -249.917984 -0.895470 27.110937 74.295189 252.380859
[R_mid_tent01]
20 23.228794 24.509907 226.238495 166.981323 -42.229641 81.582275 228.744751
21 23.228794 24.509907 226.238495 170.403564 -39.218891 77.585472 228.744751
[spine01]
20 -0.361383 -0.195265 0.000000 0.001900 0.001380 18.010675 0.410763
21 -0.361383 -0.195265 0.000000 0.001901 0.001378 18.141060 0.410763
[Bip01_Neck]
20 165.484543 71.581718 0.000119 175.896118 1.177290 24.871185 180.302734
21 165.484543 71.581718 0.000119 175.896118 1.177290 24.871183 180.302734
[L_humerus]
20 -13.983130 -135.272980 -120.471481 -178.923996 3.559287 -100.924881 181.680161
21 -13.983130 -135.272980 -120.471481 -178.502625 2.635780 -93.366737 181.680161
[R_humerus]
20 -13.983309 -135.273102 125.287651 -178.649521 -1.135338 -101.713623 184.909012
21 -13.983309 -135.273102 125.287651 -178.291565 -1.058107 -95.002777 184.909012
[weapon_bone]
20 235.964890 -300.705902 0.000000 0.000000 -89.951546 -128.212341 382.234833
21 235.964890 -300.705902 0.000000 0.000000 -89.951546 -128.212341 382.234833
[Bip01_Head]
20 102.819786 23.735619 5.410244 3.150732 3.423701 -20.839092 105.662476
21 102.819786 23.735613 5.410248 3.150732 3.423701 -20.839092 105.662476
[eye_left_bone]
20 -24.626970 125.451866 -64.772606 0.000000 -90.000000 -99.840431 143.318359
21 -24.626970 125.451866 -64.772606 0.000000 -90.000000 -99.840431 143.318359
[eye_right_bone]
20 -24.626970 125.451866 64.327362 0.000000 -89.960434 80.159386 143.117676
21 -24.626970 125.451866 64.327362 0.000000 -89.960434 80.159386 143.117676
[L_forearm]
20 322.776093 0.000000 -0.000119 0.000265 0.002332 -77.047821 322.776093
21 322.776093 0.000000 -0.000119 0.000258 0.002333 -77.392342 322.776093
[L_front_hand]
20 241.149185 -0.042021 -3.300071 -177.829391 0.664968 -98.486176 241.171753
21 241.149185 -0.042021 -3.300071 -177.836868 0.685389 -99.026711 241.171753
[L_weapon_bone]
20 156.183838 0.000000 0.000000 0.001922 0.001348 19.911247 156.183838
21 156.183838 0.000000 0.000000 0.001940 0.001322 21.478453 156.183838
[L_front_hand01_01]
20 86.095154 20.947098 -0.655860 0.405585 -0.442306 -4.620490 88.609184
21 86.095154 20.947098 -0.655860 0.405585 -0.442306 -4.620490 88.609184
[L_front_hand02_01]
20 86.935165 -11.437475 24.513514 116.959450 3.630817 1.495453 91.046425
21 86.935165 -11.437475 24.513514 116.959450 3.630817 1.495453 91.046425
[L_front_hand03_01]
20 86.637497 -14.123976 -20.424902 -118.420097 -4.656303 -0.152527 90.126129
21 86.637497 -14.123976 -20.424902 -118.420097 -4.656303 -0.152527 90.126129
[L_front_hand01_02]
20 71.020905 -0.000179 0.000030 0.001534 0.001777 -8.378851 71.020905
21 71.020905 -0.000179 0.000030 0.001534 0.001777 -8.378850 71.020905
[L_front_hand02_02]
20 71.020927 -0.000119 0.000060 0.001534 0.001777 -8.378851 71.020927
21 71.020927 -0.000119 0.000060 0.001534 0.001777 -8.378850 71.020927
[L_front_hand03_02]
20 71.020905 -0.000060 0.000060 0.001534 0.001777 -8.378851 71.020905
21 71.020905 -0.000060 0.000060 0.001534 0.001777 -8.378850 71.020905
[R_forearm]
20 322.776428 -0.000060 0.000030 0.203198 -0.062989 -74.471153 322.776428
21 322.776428 -0.000060 0.000030 0.204071 -0.058703 -75.579033 322.776428
[R_front_hand]
20 238.847015 -0.006795 2.210259 -1.678104 -0.406590 -92.401665 238.857239
21 238.847015 -0.006795 2.210259 -1.682153 -0.388502 -91.793953 238.857239
[R_weapon_bone]
20 155.664093 0.002503 -0.000030 0.003339 0.001549 -103.372375 155.664078
21 155.664093 0.002503 -0.000030 0.003324 0.001581 -104.496338 155.664078
[R_front_hand01_01]
20 87.624611 14.231146 22.918642 -116.960213 3.496675 -1.324139 91.683487
21 87.624611 14.231146 22.918642 -116.960213 3.496675 -1.324139 91.683487
[R_front_hand02_01]
20 89.356956 14.367283 -19.491137 118.419647 -4.257089 0.609827 92.579636
21 89.356956 14.367283 -19.491137 118.419647 -4.257089 0.609827 92.579636
[R_front_hand03_01]
20 87.286232 -22.307278 -0.143439 -0.387970 -0.231462 4.232001 90.091743
21 87.286232 -22.307278 -0.143439 -0.387970 -0.231462 4.232000 90.091743
[R_front_hand01_02]
20 71.020905 0.000060 0.000119 0.001777 0.001534 8.377220 71.020905
21 71.020905 0.000060 0.000119 0.001777 0.001534 8.377220 71.020905
[R_front_hand02_02]
20 71.020844 -0.000030 -0.000119 0.001777 0.001534 8.377220 71.020836
21 71.020844 -0.000030 -0.000119 0.001777 0.001534 8.377220 71.020836
[R_front_hand03_02]
20 71.020905 0.000000 0.000030 0.001777 0.001534 8.377220 71.020905
21 71.020905 0.000000 0.000030 0.001777 0.001534 8.377220 71.020905
[null_rope01_connect]
20 328.732483 0.000000 -0.000238 -139.250824 -63.986893 -178.799759 328.732483
21 328.732483 0.000000 -0.000238 -140.363297 -67.207001 -174.640289 328.732483
[Rope1_Seg01]
20 0.000000 0.000000 0.000000 114.434853 27.368673 145.426453 0.000000
21 0.000000 0.000000 0.000000 115.941933 23.076635 151.130234 0.000000
[Rope1_Seg02]
20 139.999863 -0.000179 0.000000 -1.998623 -25.053680 5.347110 139.999863
21 139.999863 -0.000179 0.000000 -1.296795 -28.245344 4.347731 139.999863
[Rope1_Seg03]
20 139.999924 0.000060 -0.000060 -6.735573 -23.377781 -1.709744 139.999924
21 139.999924 0.000060 -0.000060 -6.865684 -25.963085 -3.204331 139.999924
[Rope1_Seg04]
20 139.999924 -0.000060 -0.000119 -2.263798 -13.246902 14.167635 139.999924
21 139.999924 -0.000060 -0.000119 -1.996957 -13.417874 15.110361 139.999924
[Rope1_Seg05]
20 139.999832 0.000119 -0.000060 6.249240 -6.474854 13.957660 139.999832
21 139.999832 0.000119 -0.000060 8.545973 -6.913163 16.303530 139.999832
[Rope1_Seg06]
20 139.999954 0.000119 -0.000060 3.163190 -3.078410 5.685084 139.999954
21 139.999954 0.000119 -0.000060 5.376060 -2.970674 6.676293 139.999954
[Rope1_Seg07]
20 139.999985 0.000060 0.000000 3.028198 -1.671370 3.555228 139.999985
21 139.999985 0.000060 0.000000 5.442052 -1.390436 4.165245 139.999985
[Rope1_Seg09]
20 121.602913 0.000119 -0.000089 -89.793175 -1.359789 0.847147 121.602913
21 121.602913 0.000119 -0.000089 -89.793175 -1.359789 0.847147 121.602913
[L_mid_hand01]
20 103.859421 1.038730 8.195221 105.728943 -23.876040 -7.035570 104.187431
21 103.859421 1.038730 8.195221 105.607536 -22.870222 -6.727115 104.187431
[L_mid_hand02]
20 105.572853 -4.139662 -10.864139 -139.754501 20.933300 -22.288097 106.211075
21 105.572853 -4.139662 -10.864139 -139.450546 20.240807 -21.419508 106.211075
[L_mid_hand03]
20 104.641464 17.579376 -3.913581 -17.237072 7.528430 26.791271 106.179977
21 104.641464 17.579376 -3.913581 -17.366373 7.216654 25.781757 106.179977
[null_rope02_connect]
20 328.732849 0.000179 -0.000119 -123.504166 41.773979 14.412779 328.732849
21 328.732849 0.000179 -0.000119 -123.102615 45.231979 12.005211 328.732849
[Rope2_Seg01]
20 0.000095 0.000153 0.000029 -67.614799 39.332195 19.949913 0.000182
21 0.000095 0.000153 0.000031 -66.268394 34.434937 16.719009 0.000183
[Rope2_Seg02]
20 139.999741 -0.000060 -0.000119 -3.206765 -15.576525 11.679163 139.999756
21 139.999741 -0.000060 -0.000119 -5.197926 -15.395300 15.175780 139.999756
[Rope2_Seg03]
20 140.000107 0.000030 0.000000 -2.534496 -12.834208 16.012072 140.000107
21 140.000107 0.000030 0.000000 -3.355489 -11.994257 20.254787 140.000107
[Rope2_Seg04]
20 139.999802 0.000000 -0.000060 -4.504804 -29.889229 3.832745 139.999802
21 139.999802 0.000000 -0.000060 -4.992810 -31.552958 2.009828 139.999802
[Rope2_Seg05]
20 139.999985 -0.000060 0.000119 -7.461030 -15.879548 -2.039119 139.999985
21 139.999985 -0.000060 0.000119 -9.774296 -17.612175 -3.962207 139.999985
[Rope2_Seg06]
20 139.999893 -0.000030 -0.000119 -3.932962 -5.951403 -0.923639 139.999893
21 139.999893 -0.000030 -0.000119 -5.192332 -6.301490 -1.789962 139.999893
[Rope2_Seg07]
20 139.999893 0.000060 -0.000060 -2.806529 -3.351956 -0.762546 139.999893
21 139.999893 0.000060 -0.000060 -3.655168 -3.450949 -1.333772 139.999893
[Rope2_Seg09]
20 121.338966 0.000089 -0.000060 33.793236 -1.359788 -0.847141 121.338966
21 121.338966 0.000089 -0.000060 33.793236 -1.359788 -0.847141 121.338966
[R_mid_hand01]
20 104.680779 11.144459 -10.335981 -43.964020 20.049213 22.299601 105.778534
21 104.680779 11.144459 -10.335981 -44.219128 19.360693 21.543104 105.778534
[R_mid_hand02]
20 104.070427 2.443552 8.231699 74.091652 -25.172335 7.446333 104.424065
21 104.070427 2.443552 8.231699 74.217697 -24.201126 7.144703 104.424065
[R_mid_hand03]
20 106.028137 -11.221827 -5.996406 -166.624100 8.513703 -29.200678 106.788818
21 106.028137 -11.221827 -5.996406 -166.481293 8.280053 -28.208960 106.788818
[spine02]
20 129.756927 0.001550 0.000119 -1.016418 -3.943945 6.528029 129.756927
21 129.756927 0.001550 0.000119 -1.059195 -3.934770 7.129384 129.756927
[spine03]
20 78.804451 0.054114 -3.037253 -0.582066 4.461193 -16.540194 78.862976
21 78.814484 0.052368 -2.939276 -0.614138 4.476686 -16.911819 78.869286
[pelvis]
20 169.435242 0.051022 0.000000 -2.680488 -1.437352 4.090192 169.435257
21 169.435242 0.051022 0.000000 -2.824857 -1.495243 4.407669 169.435257
[null_rope03_connect]
20 -1.257226 -2.466202 137.391083 105.608696 -85.922058 1.227419 137.418976
21 -1.257226 -2.466202 137.391083 106.346077 -85.747429 0.232443 137.418976
[null_rope04_connect]
20 -1.259640 -2.480268 -137.844437 105.608696 -85.922058 1.227419 137.872513
21 -1.259640 -2.480268 -137.844437 106.346077 -85.747429 0.232443 137.872513
[Rope3_Seg01]
20 0.000000 0.000000 0.000000 -135.602005 -28.936674 -70.923134 0.000000
21 0.000000 0.000000 0.000000 -134.399277 -25.757206 -72.131950 0.000000
[Rope3_Seg02]
20 139.999924 -0.000119 0.000060 -5.180733 0.854692 -20.513748 139.999924
21 139.999924 -0.000119 0.000060 -5.881732 -0.726871 -25.609917 139.999924
[Rope3_Seg03]
20 139.999924 -0.000119 0.000119 -87.848915 9.053728 -79.838646 139.999924
21 139.999924 -0.000119 0.000119 -101.538765 5.188416 -87.918419 139.999924
[Rope3_Seg04]
20 139.999924 0.000119 0.000000 -20.611967 34.619385 -3.314926 139.999924
21 139.999924 0.000119 0.000000 -10.704445 27.185015 4.579276 139.999924
[Rope3_Seg05]
20 139.999924 -0.000238 0.000060 -3.392331 16.194506 2.382859 139.999924
21 139.999924 -0.000238 0.000060 -1.752579 11.720706 3.845145 139.999924
[Rope3_Seg06]
20 139.999893 -0.000119 -0.000060 -0.235321 6.007188 1.524640 139.999893
21 139.999893 -0.000119 -0.000060 0.004472 4.409773 1.744068 139.999893
[Rope3_Seg07]
20 139.999771 0.000060 -0.000119 0.275760 3.377985 0.905365 139.999771
21 139.999771 0.000060 -0.000119 0.337653 2.644842 1.053289 139.999771
[Rope3_Seg08]
20 139.999985 -0.000060 0.000000 0.445555 1.938514 0.508788 139.999985
21 139.999985 -0.000060 0.000000 0.459979 1.552247 0.606381 139.999985
[Rope3_Seg09]
20 90.185997 -0.000179 -0.000060 89.793228 -1.359877 -0.847183 90.185997
21 90.185997 -0.000179 -0.000060 89.793228 -1.359877 -0.847183 90.185997
[R_rear_hand01]
20 103.366196 -6.073594 -10.757982 -159.727844 14.359732 -23.283808 104.101845
21 103.366196 -6.073594 -10.757982 -159.508667 14.035697 -22.386608 104.101845
[R_rear_hand02]
20 100.509819 12.039542 -7.992327 -36.051914 15.275860 22.916328 101.543350
21 100.509819 12.039542 -7.992327 -36.248535 14.738527 22.155497 101.543350
[R_rear_hand03]
20 101.539970 5.215704 5.435467 83.771202 -24.015644 6.409148 101.819031
21 101.539970 5.215704 5.435467 83.815994 -23.112488 6.302528 101.819031
[Rope4_Seg01]
20 0.000000 0.000000 0.000000 45.793381 -12.800754 -96.645966 0.000000
21 0.000000 0.000000 0.000000 45.757195 -8.420333 -95.374977 0.000000
[Rope4_Seg02]
20 139.999985 0.000060 0.000119 11.384963 -55.829319 6.348217 139.999985
21 139.999985 0.000060 0.000119 17.978127 -65.904221 2.821347 139.999985
[Rope4_Seg03]
20 139.999924 0.000000 -0.000238 61.369701 -55.334736 30.805290 139.999924
21 139.999924 0.000000 -0.000238 68.836365 -54.258915 32.647312 139.999924
[Rope4_Seg04]
20 139.999985 0.000000 0.000119 19.240725 1.940462 27.355852 139.999985
21 139.999985 0.000000 0.000119 16.396545 5.957457 26.932493 139.999985
[Rope4_Seg05]
20 139.999802 -0.000060 -0.000119 7.917104 8.792945 22.061581 139.999802
21 139.999802 -0.000060 -0.000119 4.728183 7.844473 15.292667 139.999802
[Rope4_Seg06]
20 139.999924 0.000000 0.000060 1.138964 3.940710 7.107333 139.999924
21 139.999924 0.000000 0.000060 0.863067 3.245196 5.228026 139.999924
[Rope4_Seg07]
20 139.999802 0.000000 0.000000 0.426186 2.342367 4.057650 139.999802
21 139.999802 0.000000 0.000000 0.414491 2.033611 3.185063 139.999802
[Rope4_Seg08]
20 139.999924 0.000000 0.000119 -1.386265 1.345379 2.295499 139.999924
21 139.999924 0.000000 0.000119 -1.354065 1.200938 1.857249 139.999924
[Rope4_Seg09]
20 90.185791 0.000060 0.000060 -135.617828 2.228885 0.850567 90.185791
21 90.185791 0.000060 0.000060 -135.617828 2.228885 0.850567 90.185791
[L_rear_hand01]
20 101.696655 -8.392275 -7.654577 -36.360573 -14.430037 158.279190 102.329041
21 101.696655 -8.392275 -7.654577 -36.560307 -13.838820 159.105713 102.329041
[L_rear_hand02]
20 102.726799 -1.568258 5.773216 83.839066 22.590925 173.764496 102.900848
21 102.726799 -1.568258 5.773216 83.881248 21.599264 173.879486 102.900848
[L_rear_hand03]
20 104.552910 9.721220 -10.420293 -159.389572 -13.854645 -158.110687 105.519653
21 104.552910 9.721220 -10.420293 -159.161163 -13.503013 -159.070801 105.519653
